<svg width="701" height="200" viewBox="0 0 701 200" fill="none" xmlns="http://www.w3.org/2000/svg">
<path d="M586.749 68.1113C591.192 72.2492 593.873 78.3115 594.355 84.3474C594.382 85.1975 594.39 86.0453 594.389 86.8958C594.391 87.2141 594.394 87.5323 594.396 87.8602C594.401 88.5444 594.404 89.2287 594.406 89.9129C594.409 90.9972 594.416 92.0814 594.424 93.1657C594.444 95.8563 594.456 98.547 594.469 101.238C594.48 103.518 594.494 105.797 594.511 108.077C594.518 109.143 594.521 110.209 594.524 111.274C594.528 111.93 594.533 112.585 594.538 113.24C594.538 113.534 594.538 113.829 594.537 114.131C594.555 115.862 594.721 117.322 595.341 118.947C597.562 120.428 599.563 120.136 602.362 120.351C602.362 124.982 602.362 129.614 602.362 134.386C599.451 134.429 599.451 134.429 596.482 134.474C595.879 134.486 595.276 134.499 594.654 134.512C590.097 134.569 586.487 133.979 583.102 130.683C581.243 128.553 580.262 126.406 580.136 123.591C580.114 123.123 580.114 123.123 580.091 122.645C580.077 122.322 580.064 121.999 580.049 121.667C580.034 121.338 580.019 121.01 580.004 120.672C579.966 119.863 579.931 119.054 579.896 118.246C579.763 118.501 579.631 118.756 579.494 119.019C575.646 126.044 569.736 130.264 562.125 132.719C551.93 135.636 540.78 134.827 531.383 129.829C529.977 129.037 528.777 128.107 527.593 127.018C527.328 126.792 527.063 126.567 526.789 126.335C523.863 123.684 521.564 119.695 521.204 115.708C521.168 114.834 521.159 113.966 521.165 113.092C521.167 112.782 521.169 112.472 521.171 112.152C521.259 107.353 522.669 103.457 525.931 99.8766C534.471 91.763 548.675 92.0146 559.69 91.7544C562.81 91.6805 565.928 91.5928 569.044 91.4213C569.281 91.4091 569.518 91.3969 569.762 91.3844C573.076 91.1889 576.525 90.8912 579.194 88.7719C580.162 87.4164 579.918 86.1728 579.731 84.5861C579.106 80.9751 577.863 77.8017 574.88 75.5277C570.076 72.4714 564.862 71.8011 559.272 71.819C558.553 71.8201 557.835 71.8119 557.117 71.803C551.122 71.7743 545.08 72.7619 540.625 77.0792C538.26 79.6651 537.25 82.5391 536.72 85.9649C533.818 85.8062 530.954 85.4781 528.076 85.0877C527.734 85.0419 527.393 84.996 527.042 84.9488C526.558 84.8819 526.558 84.8819 526.065 84.8136C525.776 84.7735 525.487 84.7335 525.19 84.6923C524.434 84.5614 524.434 84.5614 523.381 84.2105C523.536 78.2247 526.258 72.9588 530.291 68.6623C535.823 63.442 543.302 60.6494 550.761 59.6491C551.179 59.5908 551.179 59.5908 551.607 59.5312C563.783 58.1391 577.159 60.0688 586.749 68.1113ZM578.031 99.2324C571.909 101.462 564.985 101.262 558.559 101.433C547.328 101.483 547.328 101.483 537.785 106.567C535.964 108.611 535.615 111.021 535.667 113.684C536.088 116.726 537.57 118.669 539.891 120.592C545.769 124.857 553.671 124.649 560.538 123.633C567.064 122.555 573.939 119.898 578.009 114.474C579.824 111.856 580.295 109.505 580.281 106.34C580.28 105.888 580.279 105.436 580.278 104.97C580.275 104.497 580.272 104.025 580.269 103.553C580.267 103.072 580.265 102.591 580.264 102.111C580.26 100.939 580.254 99.7679 580.247 98.5965C579.368 98.5965 578.843 98.8868 578.031 99.2324Z" fill="black"/>
<path d="M178.759 63.3881C186.504 69.9773 188.527 80.5608 189.327 90.1896C189.662 94.5946 189.642 98.9951 189.623 103.41C189.622 104.311 189.621 105.211 189.62 106.112C189.618 108.214 189.612 110.316 189.605 112.419C189.597 114.818 189.593 117.218 189.59 119.618C189.582 124.541 189.57 129.463 189.554 134.386C184.573 134.386 179.592 134.386 174.46 134.386C174.453 132.488 174.453 132.488 174.445 130.551C174.427 126.351 174.404 122.151 174.377 117.951C174.362 115.407 174.348 112.862 174.339 110.318C174.331 108.098 174.319 105.877 174.303 103.657C174.294 102.484 174.288 101.31 174.286 100.137C174.3 88.0816 174.3 88.0816 168.918 77.5754C165.646 74.484 162.15 73.832 157.829 73.924C155.626 74.032 153.676 74.5999 151.644 75.4386C151.18 75.6292 151.18 75.6292 150.707 75.8237C144.966 78.4481 141.242 83.2843 138.827 88.9679C137.065 93.7126 136.159 98.4288 136.126 103.475C136.123 103.811 136.119 104.147 136.116 104.493C136.105 105.594 136.096 106.695 136.087 107.796C136.08 108.563 136.073 109.33 136.065 110.097C136.046 112.109 136.028 114.121 136.012 116.133C135.991 118.55 135.968 120.968 135.945 123.385C135.91 127.052 135.879 130.719 135.847 134.386C130.866 134.386 125.885 134.386 120.753 134.386C120.753 109.839 120.753 85.2912 120.753 60C125.734 60 130.715 60 135.847 60C135.847 66.2526 135.847 72.5052 135.847 78.9473C136.427 77.5579 137.006 76.1684 137.602 74.7368C141.553 67.6572 148.051 61.9895 155.856 59.6491C163.864 57.6152 172.087 58.1412 178.759 63.3881ZM135.145 80.7017C135.496 81.4035 135.496 81.4035 135.496 81.4035L135.145 80.7017Z" fill="black"/>
<path d="M255.584 63.3142C257.202 64.7415 258.504 66.3211 259.76 68.0702C260.045 68.4617 260.045 68.4617 260.336 68.861C266.974 78.9014 266.549 92.534 266.498 104.027C266.496 104.911 266.495 105.794 266.495 106.678C266.492 108.97 266.485 111.263 266.477 113.555C266.47 115.907 266.467 118.26 266.463 120.613C266.456 125.204 266.444 129.795 266.429 134.386C261.448 134.386 256.467 134.386 251.335 134.386C251.327 132.504 251.327 132.504 251.319 130.583C251.302 126.418 251.278 122.253 251.252 118.088C251.237 115.565 251.223 113.042 251.213 110.519C251.205 108.317 251.193 106.115 251.177 103.913C251.169 102.75 251.163 101.587 251.16 100.423C251.157 87.9317 251.157 87.9317 245.368 77.193C242.723 74.9375 239.833 73.8336 236.372 73.8816C236.098 73.8845 235.823 73.8874 235.541 73.8904C230.01 74.0487 225.261 76.3714 221.278 80.1549C211.5 90.6844 212.616 105.759 212.511 119.105C212.494 121.138 212.473 123.17 212.452 125.203C212.422 128.264 212.397 131.325 212.371 134.386C207.506 134.386 202.641 134.386 197.628 134.386C197.628 109.839 197.628 85.2912 197.628 60C202.493 60 207.358 60 212.371 60C212.487 66.1369 212.603 72.2737 212.722 78.5965C213.649 76.7439 214.575 74.8912 215.53 72.9825C220.465 65.7623 226.866 60.7114 235.517 58.9912C242.657 57.741 249.798 58.7849 255.584 63.3142ZM212.02 80.3509C212.371 81.0526 212.371 81.0526 212.371 81.0526L212.02 80.3509Z" fill="black"/>
<path d="M348.93 65.5923C360.974 65.2777 372.705 67.9599 381.773 76.2719C387.667 81.9424 391.405 89.8986 391.808 98.1103C392.003 110.316 392.003 110.316 390.342 115.439C390.231 115.785 390.231 115.785 390.119 116.139C387.322 124.631 381.097 131.212 373.234 135.276C366.475 138.639 359.401 139.731 351.926 139.737C351.658 139.737 351.39 139.737 351.114 139.738C347.242 139.732 343.553 139.617 339.794 138.596C339.556 138.533 339.319 138.469 339.075 138.403C336.037 137.567 333.132 136.51 330.316 135.088C330 134.933 329.683 134.779 329.358 134.62C326.829 133.326 324.713 131.707 322.593 129.825C322.344 129.605 322.095 129.385 321.838 129.158C315.922 123.608 312.405 115.224 312 107.185C311.804 95.3193 311.804 95.3193 313.467 90.1754C313.58 89.825 313.58 89.825 313.695 89.4675C316.485 81.1606 322.22 74.6035 329.836 70.3934C335.792 67.5273 342.315 65.7945 348.93 65.5923ZM345.704 69.7684C343.481 72.3818 342.679 75.5679 341.746 78.7939C340.259 83.9127 337.955 87.9305 333.281 90.785C331.202 91.8577 328.905 92.4618 326.68 93.1641C323.18 94.3142 320.139 95.8176 318.03 98.9474C317.004 101.092 317.001 103.462 317.745 105.702C318.299 107.011 319.051 107.842 320.136 108.772C320.382 109.004 320.629 109.235 320.882 109.474C323.084 111.005 325.543 111.88 328.085 112.678C333.278 114.313 337.167 116.685 339.977 121.446C340.862 123.17 341.383 124.987 341.922 126.842C343.669 133.067 343.669 133.067 348.065 137.478C350.337 138.529 352.388 138.701 354.785 137.947C357.738 136.646 359.283 134.443 360.508 131.534C360.973 130.185 361.325 128.813 361.689 127.434C363.187 121.842 365.651 117.727 370.65 114.623C372.813 113.454 375.158 112.813 377.5 112.096C380.975 110.975 383.991 109.523 385.834 106.245C386.739 104.31 386.789 102.266 386.265 100.207C385.193 97.4562 383.217 95.8259 380.601 94.5614C379.339 94.0204 378.063 93.5655 376.758 93.1414C370.888 91.2249 366.481 89.0228 363.529 83.2634C362.698 81.3894 362.088 79.464 361.496 77.5051C360.291 73.5333 359.131 69.8027 355.239 67.7193C351.683 66.3882 348.405 67.1695 345.704 69.7684Z" fill="#A2EF1B"/>
<path d="M437.379 60C442.708 60 448.036 60 453.526 60C455.501 64.737 455.501 64.737 456.212 66.6345C456.373 67.065 456.535 67.4954 456.701 67.9389C456.873 68.3998 457.046 68.8607 457.218 69.3215C457.404 69.8179 457.59 70.3143 457.776 70.8106C458.275 72.1422 458.773 73.4742 459.271 74.8063C459.689 75.9219 460.106 77.0374 460.524 78.1529C461.61 81.0531 462.695 83.9538 463.78 86.8547C464.529 88.8576 465.278 90.8603 466.028 92.8629C467.032 95.5456 468.036 98.2286 469.039 100.912C469.414 101.917 469.79 102.922 470.166 103.926C473.494 112.82 473.494 112.82 474.803 116.48C474.958 116.912 475.112 117.344 475.271 117.789C475.797 119.436 476.128 121.093 476.343 122.807C476.488 122.299 476.488 122.299 476.636 121.78C476.772 121.304 476.909 120.827 477.045 120.351C477.116 120.105 477.186 119.859 477.258 119.605C478.471 115.392 479.852 111.273 481.399 107.171C482.054 105.432 482.701 103.69 483.35 101.949C483.49 101.574 483.63 101.199 483.774 100.813C484.897 97.7988 486.005 94.7792 487.107 91.7571C487.234 91.4089 487.234 91.4089 487.364 91.0536C487.795 89.8697 488.226 88.6857 488.658 87.5017C492.002 78.3196 495.387 69.1537 498.809 60C504.137 60 509.466 60 514.956 60C512.436 66.8868 509.896 73.7658 507.329 80.6352C507.052 81.3762 506.775 82.1174 506.498 82.8585C503.267 91.5096 500.025 100.156 496.779 108.802C493.579 117.324 490.395 125.852 487.225 134.386C479.927 134.386 472.629 134.386 465.11 134.386C461.895 126.352 461.895 126.352 460.736 123.159C460.457 122.396 460.177 121.633 459.898 120.871C459.754 120.476 459.61 120.082 459.462 119.676C458.663 117.491 457.861 115.307 457.057 113.124C456.973 112.894 456.888 112.664 456.801 112.427C454.652 106.591 452.456 100.773 450.257 94.9561C450.061 94.4366 449.865 93.9171 449.669 93.3975C449.572 93.1416 449.475 92.8857 449.376 92.622C448.897 91.3542 448.418 90.0864 447.939 88.8185C447.846 88.573 447.753 88.3274 447.658 88.0743C445.743 83.0061 443.849 77.9307 441.967 72.8504C441.768 72.3132 441.568 71.7761 441.369 71.239C441.275 70.9854 441.182 70.7319 441.085 70.4706C440.537 68.9957 439.979 67.525 439.414 66.0567C439.284 65.7184 439.154 65.3801 439.02 65.0315C438.766 64.3715 438.511 63.7119 438.255 63.0527C438.141 62.7561 438.026 62.4595 437.909 62.1539C437.806 61.8902 437.704 61.6265 437.599 61.3548C437.379 60.7018 437.379 60.7018 437.379 60Z" fill="black"/>
<path d="M97.2344 30.1754C102.215 30.1754 107.197 30.1754 112.329 30.1754C112.329 64.5649 112.329 98.9544 112.329 134.386C107.347 134.386 102.366 134.386 97.2344 134.386C97.2344 99.9965 97.2344 65.607 97.2344 30.1754Z" fill="black"/>
<path d="M470.99 145.68C473.217 147.52 474.758 149.764 475.29 152.632C475.29 153.442 475.29 154.253 475.29 155.088C472.51 155.203 469.73 155.319 466.865 155.439C466.518 154.512 466.17 153.586 465.812 152.632C462.721 150.185 458.31 150.255 454.552 150.636C452.314 150.951 450.544 151.451 448.612 152.632C447.735 153.946 447.691 154.586 447.91 156.14C449.714 157.779 451.746 157.946 454.097 158.268C454.485 158.326 454.873 158.384 455.274 158.444C457.095 158.715 458.919 158.965 460.744 159.208C466.081 159.93 471.808 160.815 475.443 165.197C477.362 168.021 477.252 171.11 476.694 174.386C475.61 178.051 473.311 180.61 470.024 182.456C469.791 182.59 469.557 182.723 469.317 182.86C463.121 185.992 453.702 185.942 447.208 183.86C443.87 182.588 441.094 180.759 439.353 177.566C438.443 175.521 438.034 173.46 438.081 171.228C441.013 170.893 443.907 170.838 446.857 170.877C446.994 171.311 447.132 171.746 447.274 172.193C447.999 174.105 449.054 174.788 450.872 175.68C455.104 177.239 460.54 176.885 464.759 175.439C466.04 174.828 466.768 174.18 467.567 172.982C467.749 171.554 467.749 171.554 467.567 170.175C464.674 167.203 458.725 167.304 454.78 166.789C449.479 166.09 443.442 165.107 439.925 160.683C438.293 158.151 438.092 155.488 438.638 152.595C439.498 149.229 441.057 146.86 444.002 144.967C451.709 140.885 463.66 140.419 470.99 145.68Z" fill="#A2EF1B"/>
<path d="M522.262 154.276C522.635 154.278 523.009 154.28 523.393 154.282C528.138 154.356 532.402 155.383 535.974 158.706C539.425 162.478 539.879 166.541 539.879 171.579C530.843 171.579 521.808 171.579 512.499 171.579C514.054 174.687 515.279 176.313 518.466 177.544C521.633 178.362 525.704 178.389 528.646 176.842C530.137 175.885 530.875 174.884 531.805 173.333C534.47 173.449 537.134 173.565 539.879 173.684C539.379 177.182 538.107 179.77 535.287 181.975C529.782 185.616 522.245 185.77 515.921 184.539C512.063 183.432 508.394 181.46 506.293 177.967C503.961 173.568 503.414 169.365 504.765 164.533C506.193 160.495 508.853 157.854 512.674 156.009C515.839 154.579 518.817 154.257 522.262 154.276ZM514.605 163.509C513.254 165.336 513.254 165.336 512.979 167.467C513.052 167.666 513.125 167.865 513.201 168.07C513.404 167.904 513.606 167.737 513.815 167.566C515.028 166.724 516.134 166.624 517.586 166.595C518.05 166.584 518.05 166.584 518.523 166.573C518.854 166.568 519.184 166.562 519.525 166.556C520.036 166.545 520.036 166.545 520.558 166.534C521.645 166.511 522.732 166.49 523.819 166.469C524.557 166.454 525.295 166.439 526.033 166.423C527.84 166.386 529.647 166.35 531.454 166.316C530.876 164.493 530.384 163.091 528.682 162.048C524.432 159.853 518.064 159.746 514.605 163.509Z" fill="#A2EF1B"/>
<path d="M360.699 87.4671C364.69 90.2712 367.703 94.0488 368.578 98.9474C369.087 104.617 368.615 109.417 365.068 114.035C364.913 114.251 364.759 114.467 364.6 114.689C362.142 117.882 358.177 119.776 354.286 120.537C349.602 121.128 345.431 119.772 341.617 117.103C338.108 114.319 336.013 110.354 335.23 105.965C335.132 104.932 335.113 103.91 335.121 102.873C335.122 102.596 335.124 102.32 335.126 102.035C335.17 99.8244 335.466 97.857 336.283 95.7895C336.399 95.4959 336.514 95.2024 336.633 94.8999C338.577 90.5498 342.257 87.1785 346.683 85.4605C351.56 84.0031 356.445 84.7479 360.699 87.4671ZM344.708 97.193C343.359 99.3225 342.752 101.329 342.953 103.86C343.694 106.89 344.891 108.955 347.54 110.636C349.867 111.834 352.269 112.075 354.774 111.282C357.39 110.111 359.341 108.287 360.482 105.636C361.265 103.134 361.06 100.983 359.893 98.6445C358.418 96.1412 356.636 94.6318 353.818 93.8309C350.417 93.1032 346.94 94.5944 344.708 97.193Z" fill="#A2EF1B"/>
<path d="M596.175 158.048C599.169 160.971 599.566 164.371 599.664 168.387C599.672 168.64 599.679 168.894 599.686 169.155C599.709 169.956 599.73 170.756 599.751 171.557C599.766 172.104 599.781 172.65 599.797 173.197C599.834 174.529 599.87 175.861 599.904 177.193C600.715 177.425 601.526 177.656 602.361 177.895C602.361 180.095 602.361 182.295 602.361 184.561C601.132 184.609 599.905 184.644 598.676 184.671C598.331 184.686 597.986 184.7 597.631 184.716C595.229 184.756 593.686 184.365 591.831 182.807C591.044 181.942 590.591 181.042 590.076 180C589.931 180.186 589.786 180.373 589.637 180.565C587.371 183.336 584.841 184.616 581.251 184.991C576.653 185.231 572.593 184.801 568.959 181.701C567.38 180.119 566.7 178.46 566.544 176.234C566.579 174.022 567.224 172.223 568.663 170.526C572.493 167.137 577.685 167.191 582.528 166.996C583.331 166.962 584.134 166.927 584.936 166.888C585.657 166.854 586.377 166.824 587.098 166.794C588.233 166.676 589.052 166.452 590.076 165.965C589.982 164.341 589.982 164.341 589.267 162.939C586.871 160.997 583.504 161.163 580.598 161.403C578.814 161.705 577.513 162.052 576.188 163.311C575.737 164.115 575.53 164.728 575.332 165.614C572.624 165.669 569.956 165.5 567.259 165.263C567.338 162.137 568.376 160.164 570.616 158.004C577.207 152.58 589.539 152.93 596.175 158.048ZM588.671 171.579C588.031 171.643 587.39 171.691 586.748 171.73C586.368 171.755 585.988 171.781 585.597 171.808C584.801 171.859 584.006 171.909 583.211 171.956C579.631 172.185 579.631 172.185 576.498 173.809C575.825 174.647 575.846 175.47 575.891 176.515C575.997 177.286 575.997 177.286 576.758 178.026C579.703 179.654 582.578 179.51 585.811 178.695C587.55 178.086 588.939 177.31 590.081 175.842C590.756 174.37 590.581 172.806 590.427 171.228C589.651 171.191 589.651 171.191 588.671 171.579Z" fill="#A2EF1B"/>
<path d="M83.5443 17.8947C86.3096 19.8203 87.7548 22.0998 88.8097 25.2632C88.8413 26.0862 88.8509 26.9102 88.8495 27.7339C88.8496 27.9839 88.8496 28.2339 88.8497 28.4915C88.8494 29.3173 88.8467 30.1432 88.8439 30.969C88.8433 31.5418 88.8428 32.1146 88.8424 32.6873C88.8411 34.1946 88.8376 35.7019 88.8338 37.2091C88.8302 38.7473 88.8286 40.2854 88.8268 41.8236C88.823 44.8415 88.817 47.8593 88.8097 50.8772C88.0763 50.8253 87.343 50.7722 86.6097 50.7185C86.2014 50.689 85.793 50.6595 85.3723 50.6292C79.8656 50.1261 74.6779 46.9472 71.0773 42.8564C69.3477 40.6466 68.0237 38.4186 67.046 35.7895C66.8784 35.3675 66.8784 35.3675 66.7073 34.9369C65.4333 31.1692 65.1771 26.162 66.8924 22.5219C68.6372 19.6261 70.7554 17.6887 73.9939 16.6379C77.2172 16.0277 80.7053 16.1716 83.5443 17.8947Z" fill="#A2EF1B"/>
<path d="M502.319 142.807C502.319 145.123 502.319 147.439 502.319 149.825C499.313 150.132 499.313 150.132 498.382 150.223C496.696 150.403 495.158 150.712 493.543 151.228C493.579 152.262 493.579 152.262 493.894 153.333C495.477 154.277 497.303 154.19 499.094 154.254C500.69 154.32 500.69 154.32 502.319 154.386C502.319 156.818 502.319 159.249 502.319 161.754C500.002 161.754 497.685 161.754 495.298 161.754C495.298 169.281 495.298 176.807 495.298 184.561C492.403 184.561 489.507 184.561 486.523 184.561C486.523 177.035 486.523 169.509 486.523 161.754C484.438 161.754 482.353 161.754 480.204 161.754C480.204 159.323 480.204 156.891 480.204 154.386C482.405 154.27 484.606 154.154 486.874 154.035C486.179 153.225 485.484 152.414 484.768 151.579C484.369 150.024 484.57 148.564 485.163 147.083C489.393 142.15 496.362 142.721 502.319 142.807Z" fill="#A2EF1B"/>
<path d="M551.814 154.737C556.332 154.737 560.849 154.737 565.504 154.737C565.504 157.053 565.504 159.368 565.504 161.754C561.102 161.754 556.7 161.754 552.165 161.754C552.165 169.396 552.165 177.039 552.165 184.912C549.269 184.912 546.373 184.912 543.389 184.912C543.389 177.154 543.389 169.396 543.389 161.403C546.169 161.403 548.949 161.403 551.814 161.403C551.814 159.203 551.814 157.003 551.814 154.737Z" fill="#A2EF1B"/>
<path d="M351.86 148.969C352.254 148.972 352.254 148.972 352.655 148.976C354.7 149.034 356.313 149.395 358.047 150.526C358.373 150.729 358.699 150.932 359.034 151.14C360.479 152.626 361.277 154.23 361.382 156.316C361.271 158.323 360.619 159.87 359.207 161.308C356.894 163.208 354.116 164.081 351.128 163.96C348.352 163.614 345.723 162.717 343.907 160.504C342.756 158.728 342.387 156.787 342.72 154.7C343.331 152.647 344.706 151.339 346.463 150.175C348.325 149.216 349.81 148.941 351.86 148.969Z" fill="#A2EF1B"/>
<path d="M358.153 43.3374C360.151 44.9621 361.071 46.5018 361.36 49.1009C361.258 51.2956 360.264 53.0079 358.683 54.4956C355.972 56.5984 352.959 56.7854 349.623 56.4912C347.144 56.0701 345.287 54.8882 343.655 52.9825C342.609 51.3099 342.435 49.7046 342.757 47.7769C343.386 45.3427 344.598 44.164 346.69 42.8851C350.186 41.0712 354.834 41.1579 358.153 43.3374Z" fill="#A2EF1B"/>
<path d="M330.667 144.912C333.16 146.54 334.648 148.778 335.581 151.579C335.825 154.052 335.765 156.241 334.177 158.246C332.656 159.812 331.1 160.131 328.956 160.219C325.88 160.094 323.702 159.167 321.584 156.93C319.721 154.574 318.824 152.38 318.947 149.35C319.225 147.449 319.973 146.128 321.321 144.781C324.492 142.819 327.452 143.349 330.667 144.912Z" fill="#A2EF1B"/>
<path d="M332.858 45.5167C334.174 46.4728 335.062 47.5643 335.581 49.1228C335.939 52.4754 335.358 54.9056 333.261 57.5562C331.564 59.3893 329.269 60.8618 326.736 61.1362C324.566 61.2009 322.977 60.9232 321.189 59.6491C319.668 58.089 319.053 56.6526 318.951 54.4956C319.007 51.8599 319.984 49.2229 321.891 47.3684C325.2 44.8455 328.947 43.2929 332.858 45.5167Z" fill="#A2EF1B"/>
<path d="M382.049 144.474C383.611 145.813 384.615 146.953 384.821 149.047C384.929 152.534 384.188 154.906 381.829 157.5C379.327 159.765 376.899 160.24 373.557 160.136C371.671 159.907 370.82 159.096 369.543 157.785C368.263 155.82 368.092 154.021 368.389 151.75C368.996 148.95 370.705 146.591 373.075 145C375.922 143.351 379.05 142.919 382.049 144.474Z" fill="#A2EF1B"/>
<path d="M307.302 69.8684C308.895 71.0335 310.174 72.4484 310.658 74.386C310.99 77.279 310.41 79.4784 308.688 81.8243C306.818 84.0669 304.757 85.7237 301.77 86.0554C299.63 86.1535 298.025 85.8144 296.266 84.5614C294.746 83.0013 294.13 81.5649 294.029 79.4079C294.084 76.7722 295.062 74.1352 296.968 72.2807C300.181 69.8721 303.279 68.5523 307.302 69.8684Z" fill="#A2EF1B"/>
<path d="M298.087 93.6842C300.474 95.3803 302.071 97.44 302.585 100.351C302.946 103.683 302.4 106.573 300.347 109.276C298.74 110.845 297.479 111.297 295.257 111.403C293.188 111.342 291.801 110.916 290.299 109.474C288.333 107.071 287.667 104.446 287.731 101.373C287.974 99.1295 288.677 97.1739 290.123 95.4386C290.413 95.207 290.703 94.9754 291.001 94.7368C291.247 94.5342 291.493 94.3316 291.747 94.1228C293.593 92.8928 296.045 93.0436 298.087 93.6842Z" fill="#A2EF1B"/>
<path d="M378.67 45.1316C381.355 46.4951 383.163 48.3706 384.462 51.0965C384.952 53.3004 385.036 55.5404 384.33 57.6974C383.162 59.2927 381.75 60.5569 379.811 61.0526C377.025 61.4131 374.684 60.6653 372.357 59.1324C370.163 57.3884 368.786 55.0316 368.227 52.2807C368.077 50.3269 368.319 48.7233 369.28 47.0176C371.692 44.2736 375.37 43.776 378.67 45.1316Z" fill="#A2EF1B"/>
<path d="M406.971 119.561C408.55 120.914 409.578 122.146 409.999 124.211C410.087 127.352 409.303 129.695 407.173 132.011C404.946 134.121 403.061 135.102 399.995 135.241C397.674 135.17 396.079 134.485 394.422 132.873C393.051 130.607 392.949 128.498 393.501 125.965C394.641 122.865 396.598 120.878 399.468 119.298C401.915 118.253 404.617 118.341 406.971 119.561Z" fill="#A2EF1B"/>
<path d="M306.554 120.529C308.825 122.374 310.405 124.81 310.742 127.747C310.812 129.796 310.454 131.299 309.254 132.982C308.066 134.233 306.938 135.011 305.182 135.171C302.019 135.249 299.529 134.658 297.114 132.5C295.019 130.094 294.022 127.67 294.064 124.511C294.236 122.721 294.833 121.382 296.155 120.152C299.422 117.688 303.247 118.37 306.554 120.529Z" fill="#A2EF1B"/>
<path d="M410.362 93.5732C412.757 94.8411 414.011 96.8172 414.913 99.2982C415.686 102.036 415.374 104.796 414.211 107.368C413.07 109.033 411.82 110.325 409.999 111.228C407.99 111.56 406.022 111.537 404.229 110.504C402.164 108.981 400.971 107.093 400.521 104.561C400.27 101.616 400.424 99.0888 401.925 96.4912C404.156 93.8708 406.9 92.4106 410.362 93.5732Z" fill="#A2EF1B"/>
<path d="M404.247 70.4153C406.902 71.8794 408.783 73.9004 409.648 76.8421C409.917 78.9768 410.081 81.233 409.078 83.2018C407.8 84.7474 406.373 85.8208 404.337 86.0485C401.16 86.1454 398.493 85.2374 396.146 83.0579C393.874 80.5212 393.372 78.2578 393.403 74.8986C393.537 73.2291 393.841 72.5156 394.905 71.2281C397.838 68.9543 400.916 68.9154 404.247 70.4153Z" fill="#A2EF1B"/>
<path d="M305.876 142.008C309.074 143.342 310.977 145.273 312.414 148.421C312.808 149.881 312.883 151.096 312.523 152.566C311.746 153.86 311.047 154.607 309.605 155.088C307.064 155.347 304.847 154.621 302.838 153.065C300.666 151.011 299.374 149.106 299.272 146.075C299.331 144.607 299.461 143.583 300.479 142.456C302.2 141.434 303.979 141.431 305.876 142.008Z" fill="#A2EF1B"/>
<path d="M310.308 49.8246C311.386 50.459 311.863 50.8282 312.414 51.9298C312.753 54.6412 312.48 56.6108 310.931 58.8802C309.134 61.096 307.032 62.6587 304.165 63.1141C302.662 63.238 301.742 62.9769 300.479 62.1053C299.302 60.9693 299.128 59.8552 299.075 58.2456C299.569 55.5781 300.901 53.3125 303.048 51.6502C305.545 49.965 307.255 49.5194 310.308 49.8246Z" fill="#A2EF1B"/>
<path d="M402.935 142.105C404.032 143.138 404.487 144.131 404.734 145.614C404.675 148.208 403.65 150.371 401.925 152.281C399.699 154.111 397.497 155.346 394.554 155.088C393.157 154.534 392.586 154.242 391.746 152.982C391.17 150.415 391.572 148.547 392.877 146.268C395.158 142.933 398.896 140.701 402.935 142.105Z" fill="#A2EF1B"/>
<path d="M397.713 49.8246C400.152 50.5356 402.048 52.2781 403.431 54.3682C404.323 55.9998 404.704 57.4383 404.734 59.2983C404.221 60.944 403.758 61.9189 402.276 62.807C400.144 63.1745 398.129 62.9627 396.254 61.8682C393.731 60.0567 391.984 57.8098 391.417 54.7149C391.391 53.1305 391.667 52.2492 392.448 50.8772C394.017 49.4083 395.676 49.5757 397.713 49.8246Z" fill="#A2EF1B"/>
<path d="M425.62 96.4474C427.259 96.974 427.656 97.5262 428.603 98.9474C429.282 100.998 429.318 103.579 428.516 105.592C427.495 107.378 427.495 107.378 426.497 108.07C425.291 108.268 425.291 108.268 424.04 108.07C422.446 106.902 421.935 105.778 421.583 103.86C421.366 101.708 421.565 99.8032 422.636 97.8948C423.648 96.7423 424.08 96.5023 425.62 96.4474Z" fill="#A2EF1B"/>
<path d="M280.119 96.8421C281.736 98.3272 282.138 100.106 282.335 102.237C282.165 104.21 281.68 105.923 280.558 107.566C279.396 108.308 278.661 108.283 277.311 108.07C275.865 106.978 275.213 105.975 274.854 104.211C274.601 101.673 274.761 99.6619 276.258 97.5439C277.439 96.2008 278.459 96.368 280.119 96.8421Z" fill="#A2EF1B"/>
<path d="M356.292 29.8246C357.17 30.4386 357.17 30.4386 357.696 31.2281C357.894 32.4342 357.894 32.4342 357.696 33.6842C356.527 35.2777 355.403 35.7886 353.484 36.1403C351.331 36.3575 349.426 36.158 347.516 35.0877C346.617 34.2982 346.617 34.2982 346.112 33.3333C346.112 31.9588 346.242 31.1807 347.056 30.0658C349.759 28.0943 353.42 28.2899 356.292 29.8246Z" fill="#A2EF1B"/>
<path d="M356.292 170.526C357.371 171.308 357.648 171.645 357.872 172.961C357.653 174.298 357.259 174.849 356.292 175.789C353.993 177.066 351.5 176.961 349.016 176.399C347.947 176.052 347.242 175.541 346.463 174.737C345.95 173.71 345.956 173.068 346.112 171.93C348.894 169.016 352.777 168.678 356.292 170.526Z" fill="#A2EF1B"/>
<path d="M331.48 166.957C332.784 167.562 333.88 168.136 334.528 169.474C334.682 170.373 334.682 170.373 334.528 171.228C333.438 172.29 332.603 172.432 331.106 172.434C328.84 172.379 327.245 171.82 325.506 170.384C324.758 169.466 324.986 168.502 325.05 167.368C327.168 165.976 329.161 166.128 331.48 166.957Z" fill="#A2EF1B"/>
<path d="M373.325 32.1327C375.365 32.48 377.11 33.1448 378.648 34.5395C379.109 35.4386 379.109 35.4386 379.109 36.3597C378.658 37.4299 378.411 37.7435 377.354 38.2456C375.229 38.5508 373.268 38.2259 371.386 37.193C370.459 36.4241 369.824 35.782 369.236 34.7368C369.28 34.0351 369.28 34.0351 369.938 33.0702C371.202 32.1606 371.81 32.0415 373.325 32.1327Z" fill="#A2EF1B"/>
<path d="M286.789 75.4386C287.655 76.3908 287.826 77.0595 287.973 78.3334C287.744 80.6279 287.163 82.9815 285.384 84.5614C284.068 84.8465 284.068 84.8465 282.927 84.9123C281.708 83.5188 281.679 82.4891 281.725 80.6894C281.969 78.9918 282.654 77.544 283.629 76.1404C284.849 75.3279 285.354 75.2295 286.789 75.4386Z" fill="#A2EF1B"/>
<path d="M333.848 32.807C334.073 32.9807 334.297 33.1544 334.528 33.3333C334.487 35.4512 334.487 35.4512 333.693 36.3185C331.621 37.8659 329.391 38.4849 326.806 38.2456C325.782 37.801 325.227 37.5244 324.699 36.5351C324.699 35.4029 325.046 34.9175 325.753 34.0351C328.103 32.3366 331.144 31.4829 333.848 32.807Z" fill="#A2EF1B"/>
<path d="M421.232 120C422.331 121.648 422.132 123.335 421.934 125.263C421.389 127.092 420.47 128.523 418.775 129.474C417.573 129.418 417.173 129.276 416.317 128.421C415.779 126.103 416.062 124.284 417.019 122.105C418.177 120.311 419.067 119.351 421.232 120Z" fill="#A2EF1B"/>
<path d="M284.09 119.671C285.684 120.227 286.434 121.378 287.145 122.836C287.861 124.693 288.103 126.493 287.491 128.421C287.009 129.038 287.009 129.038 286.438 129.474C285.119 129.474 284.529 129.309 283.564 128.399C282.195 126.182 281.494 124.032 281.874 121.403C282.376 120.169 282.676 119.633 284.09 119.671Z" fill="#A2EF1B"/>
<path d="M418.16 75.2851C419.477 75.4386 419.477 75.4386 420.464 76.3597C421.984 78.5131 422.298 80.9211 421.934 83.5088C421.401 84.3284 421.401 84.3284 420.881 84.9123C419.452 84.8783 418.622 84.5765 417.634 83.5746C416.318 81.8993 416.045 79.9825 415.967 77.8947C416.492 75.5096 416.492 75.5096 418.16 75.2851Z" fill="#A2EF1B"/>
<path d="M375.818 166.557C376.411 166.548 376.411 166.548 377.016 166.539C378.055 166.667 378.055 166.667 378.718 167.138C379.109 167.719 379.109 167.719 379.174 168.706C378.568 170.334 377.412 171.056 375.949 171.93C374.839 172.3 373.978 172.363 372.812 172.39C372.447 172.403 372.082 172.417 371.705 172.43C370.456 172.247 370.065 171.836 369.28 170.877C369.716 169.133 370.228 168.351 371.737 167.368C373.128 166.696 374.277 166.562 375.818 166.557Z" fill="#A2EF1B"/>
</svg>
